<svg id="_x33_0" enable-background="new 0 0 64 64" height="20" viewBox="0 0 64 64" width="20" xmlns="http://www.w3.org/2000/svg"><path d="m23 48v8l-5-4z" fill="#aab2bd"/><path d="m50 52-5 4v-8z" fill="#aab2bd"/><path d="m43 58v3c0 .55-.45 1-1 1h-16c-.55 0-1-.45-1-1v-3z" fill="#f0d0b4"/><path d="m45 56v1c0 .55-.45 1-1 1h-1-18-1c-.55 0-1-.45-1-1v-1-8-1c0-.55.45-1 1-1h1 17.45 1.55c.55 0 1 .45 1 1v1z" fill="#fcd770"/><circle cx="39" cy="52" fill="#ffeaa7" r="2"/><circle cx="29" cy="52" fill="#ffeaa7" r="2"/><g fill="#f0d0b4"><path d="m39 32v-10c0-1.1.9-2 2-2h4c1.19.3 2.22.96 2.97 1.86s1.22 2.02 1.3 3.25l.12 1.74c.39 5.92-1.8 11.8-5.2 16.66l-1.74 2.49h-17.45c-4.39-3.14-7-8.2-7-13.6v-1.4c0-1.66 1.34-3 3-3h5c.33 0 .65.05.94.16l.06-.16v-5-1-17c0-1.66 1.34-3 3-3 .83 0 1.58.34 2.12.88s.88 1.29.88 2.12v17 2 8c0 1.66 1.34 3 3 3 .83 0 1.58-.34 2.12-.88s.88-1.29.88-2.12z"/><path d="m39 22v10c0 .83-.34 1.58-.88 2.12s-1.29.88-2.12.88c-1.66 0-3-1.34-3-3v-8-2c0-1.1.9-2 2-2h2c1.1 0 2 .9 2 2z"/><path d="m26 28h-5v-6c0-1.1.9-2 2-2h2c1.1 0 2 .9 2 2v1 5l-.06.16c-.29-.11-.61-.16-.94-.16z"/></g><path d="m29 49c-1.654 0-3 1.346-3 3s1.346 3 3 3 3-1.346 3-3-1.346-3-3-3zm0 4c-.551 0-1-.448-1-1s.449-1 1-1 1 .448 1 1-.449 1-1 1z"/><path d="m39 49c-1.654 0-3 1.346-3 3s1.346 3 3 3 3-1.346 3-3-1.346-3-3-3zm0 4c-.551 0-1-.448-1-1s.449-1 1-1 1 .448 1 1-.449 1-1 1z"/><path d="m51.601 52-5.601-4.481v-.519c0-.985-.717-1.801-1.656-1.965l.666-.952c3.845-5.493 5.754-11.636 5.377-17.296l-.116-1.739c-.193-2.896-2.214-5.314-5.029-6.018l-4.242-.03c-.771 0-1.468.301-2 .78-.532-.48-1.229-.78-2-.78h-2c-.352 0-.686.072-1 .184v-14.184c0-2.206-1.794-4-4-4s-4 1.794-4 4v14.184c-.314-.112-.648-.184-1-.184h-2c-1.654 0-3 1.346-3 3v5.142c-1.72.447-3 1.999-3 3.858v1.397c0 4.985 2.116 9.727 5.745 13.058-.451.367-.745.92-.745 1.545v.519l-5.601 4.481 5.601 4.481v.519c0 1.103.897 2 2 2v2c0 1.103.897 2 2 2h16c1.103 0 2-.897 2-2v-2c1.103 0 2-.897 2-2v-.519zm-3.202 0-2.399 1.919v-3.839zm-13.399-31h2c.551 0 1 .448 1 1v10c0 1.103-.897 2-2 2s-2-.897-2-2v-8-2c0-.552.449-1 1-1zm-12 0h2c.551 0 1 .448 1 1v1 4h-4v-5c0-.552.449-1 1-1zm-4 11.397v-1.397c0-1.103.897-2 2-2h5c1.103 0 2 .897 2 2s-.897 2-2 2h-2.264c-.539 0-1.007.327-1.19.834-.184.507-.036 1.059.378 1.404l3.666 2.172c.947.557 1.669 1.27 2.088 2.062.328.621.326 1.39.323 2.28l-.001.248h2v-.241c.003-1.061.007-2.158-.555-3.221-.593-1.121-1.576-2.107-2.843-2.853l-1.201-.706c2.019-.202 3.599-1.91 3.599-3.979 0-1.474-.81-2.75-2-3.444v-4.556-1-17c0-1.103.897-2 2-2s2 .897 2 2v17 2 8c0 2.206 1.794 4 4 4 1.2 0 2.266-.542 3-1.382.734.84 1.8 1.382 3 1.382 2.206 0 4-1.794 4-4v-6h-2v6c0 1.103-.897 2-2 2s-2-.897-2-2v-10c0-.552.449-1 1-1h3.871c1.91.527 3.273 2.193 3.406 4.181l.116 1.739c.347 5.207-1.436 10.896-5.021 16.017l-1.445 2.063h-16.591c-3.97-2.956-6.336-7.641-6.336-12.603zm.601 19.603 2.399-1.919v3.839zm22.399 9h-16v-2h16zm-18-4v-10h20l.001 10z"/></svg>